<svg width="430" height="940" viewBox="0 0 430 940" fill="none" xmlns="http://www.w3.org/2000/svg">
  <defs>
    <linearGradient id="hero" x1="40" y1="86" x2="390" y2="268" gradientUnits="userSpaceOnUse">
      <stop offset="0" stop-color="#FF6B35"/>
      <stop offset="0.58" stop-color="#F05C2E"/>
      <stop offset="1" stop-color="#D9471E"/>
    </linearGradient>
    <linearGradient id="data" x1="30" y1="657" x2="400" y2="782" gradientUnits="userSpaceOnUse">
      <stop offset="0" stop-color="#0F766E"/>
      <stop offset="1" stop-color="#115E8A"/>
    </linearGradient>
    <filter id="softShadow" x="-10%" y="-10%" width="120%" height="120%">
      <feDropShadow dx="0" dy="3" stdDeviation="4" flood-color="#3B2A1F" flood-opacity="0.10"/>
    </filter>
  </defs>

  <rect width="430" height="940" fill="#F5F4F0"/>

  <!-- phone surface -->
  <rect x="19" y="22" width="392" height="896" rx="24" fill="#F5F4F0" stroke="#E5DED5"/>

  <!-- top bar -->
  <rect x="19" y="22" width="392" height="64" rx="24" fill="#FFFFFF"/>
  <rect x="19" y="62" width="392" height="24" fill="#FFFFFF"/>
  <text x="54" y="61" font-family="Microsoft YaHei, PingFang SC, Arial, sans-serif" font-size="22" font-weight="700" fill="#1A1A1A">‹</text>
  <text x="215" y="60" text-anchor="middle" font-family="Microsoft YaHei, PingFang SC, Arial, sans-serif" font-size="17" font-weight="700" fill="#1A1A1A">我的钱包</text>
  <circle cx="374" cy="53" r="15" fill="#F7F2EC"/>
  <text x="374" y="58" text-anchor="middle" font-family="Microsoft YaHei, PingFang SC, Arial, sans-serif" font-size="14" font-weight="700" fill="#8C6A50">?</text>

  <!-- hero overview -->
  <rect x="35" y="102" width="360" height="172" rx="16" fill="url(#hero)" filter="url(#softShadow)"/>
  <text x="59" y="134" font-family="Microsoft YaHei, PingFang SC, Arial, sans-serif" font-size="14" font-weight="600" fill="#FFE9DF">资产总览</text>
  <text x="59" y="164" font-family="Microsoft YaHei, PingFang SC, Arial, sans-serif" font-size="32" font-weight="800" fill="#FFFFFF">¥1,317.30</text>
  <text x="208" y="164" font-family="Microsoft YaHei, PingFang SC, Arial, sans-serif" font-size="13" fill="#FFE9DF">资金 + 数据收益</text>
  <rect x="59" y="185" width="142" height="1" fill="#FFFFFF" opacity="0.26"/>
  <text x="59" y="214" font-family="Microsoft YaHei, PingFang SC, Arial, sans-serif" font-size="13" fill="#FFE9DF">可提现</text>
  <text x="59" y="240" font-family="Microsoft YaHei, PingFang SC, Arial, sans-serif" font-size="21" font-weight="800" fill="#FFFFFF">¥850.00</text>
  <text x="225" y="214" font-family="Microsoft YaHei, PingFang SC, Arial, sans-serif" font-size="13" fill="#FFE9DF">积分</text>
  <text x="225" y="240" font-family="Microsoft YaHei, PingFang SC, Arial, sans-serif" font-size="21" font-weight="800" fill="#FFFFFF">8,680</text>
  <rect x="306" y="119" width="66" height="30" rx="15" fill="#FFFFFF" opacity="0.18"/>
  <text x="339" y="139" text-anchor="middle" font-family="Microsoft YaHei, PingFang SC, Arial, sans-serif" font-size="12" font-weight="700" fill="#FFFFFF">安全中</text>

  <!-- quick entrances -->
  <rect x="35" y="292" width="360" height="118" rx="14" fill="#FFFFFF"/>
  <text x="55" y="322" font-family="Microsoft YaHei, PingFang SC, Arial, sans-serif" font-size="16" font-weight="700" fill="#1A1A1A">四类资产</text>
  <g font-family="Microsoft YaHei, PingFang SC, Arial, sans-serif">
    <rect x="55" y="340" width="70" height="52" rx="12" fill="#FFF4EF"/>
    <circle cx="78" cy="361" r="9" fill="#FF6B35"/>
    <text x="90" y="365" font-size="13" font-weight="700" fill="#3B2A1F">资金</text>
    <text x="90" y="383" font-size="11" fill="#8C6A50">可提现</text>

    <rect x="138" y="340" width="70" height="52" rx="12" fill="#F2FAEE"/>
    <circle cx="161" cy="361" r="9" fill="#52C41A"/>
    <text x="173" y="365" font-size="13" font-weight="700" fill="#1F3B1B">积分</text>
    <text x="173" y="383" font-size="11" fill="#58704D">奖励</text>

    <rect x="221" y="340" width="70" height="52" rx="12" fill="#EEF6FF"/>
    <circle cx="244" cy="361" r="9" fill="#1677FF"/>
    <text x="256" y="365" font-size="13" font-weight="700" fill="#17365C">数字</text>
    <text x="256" y="383" font-size="11" fill="#526B86">券权益</text>

    <rect x="304" y="340" width="70" height="52" rx="12" fill="#EAF8F6"/>
    <circle cx="327" cy="361" r="9" fill="#0F766E"/>
    <text x="339" y="365" font-size="13" font-weight="700" fill="#123C3A">数据</text>
    <text x="339" y="383" font-size="11" fill="#4F7772">收益</text>
  </g>

  <!-- account cards -->
  <rect x="35" y="426" width="360" height="112" rx="14" fill="#FFFFFF"/>
  <rect x="55" y="450" width="44" height="44" rx="12" fill="#FFF4EF"/>
  <text x="77" y="478" text-anchor="middle" font-family="Arial" font-size="22" font-weight="700" fill="#FF6B35">¥</text>
  <text x="113" y="459" font-family="Microsoft YaHei, PingFang SC, Arial, sans-serif" font-size="16" font-weight="800" fill="#1A1A1A">资金账户</text>
  <text x="113" y="482" font-family="Microsoft YaHei, PingFang SC, Arial, sans-serif" font-size="12" fill="#77706A">可提现 ¥850.00 ｜ 不可提现 ¥430.50</text>
  <rect x="113" y="499" width="78" height="28" rx="14" fill="#FF6B35"/>
  <text x="152" y="518" text-anchor="middle" font-family="Microsoft YaHei, PingFang SC, Arial, sans-serif" font-size="13" font-weight="700" fill="#FFFFFF">提现</text>
  <rect x="201" y="499" width="86" height="28" rx="14" fill="#F3EEE8"/>
  <text x="244" y="518" text-anchor="middle" font-family="Microsoft YaHei, PingFang SC, Arial, sans-serif" font-size="13" font-weight="700" fill="#6D5A4C">看明细</text>

  <rect x="35" y="552" width="174" height="92" rx="14" fill="#FFFFFF"/>
  <rect x="55" y="574" width="34" height="34" rx="10" fill="#F2FAEE"/>
  <text x="72" y="597" text-anchor="middle" font-family="Arial" font-size="18" font-weight="700" fill="#52C41A">P</text>
  <text x="99" y="583" font-family="Microsoft YaHei, PingFang SC, Arial, sans-serif" font-size="15" font-weight="800" fill="#1A1A1A">积分账户</text>
  <text x="99" y="605" font-family="Microsoft YaHei, PingFang SC, Arial, sans-serif" font-size="18" font-weight="800" fill="#1A1A1A">8,680</text>
  <text x="55" y="630" font-family="Microsoft YaHei, PingFang SC, Arial, sans-serif" font-size="12" fill="#8C6A50">320 积分本月到期</text>

  <rect x="221" y="552" width="174" height="92" rx="14" fill="#FFFFFF"/>
  <rect x="241" y="574" width="34" height="34" rx="10" fill="#EEF6FF"/>
  <text x="258" y="597" text-anchor="middle" font-family="Arial" font-size="18" font-weight="700" fill="#1677FF">◇</text>
  <text x="285" y="583" font-family="Microsoft YaHei, PingFang SC, Arial, sans-serif" font-size="15" font-weight="800" fill="#1A1A1A">数字资产包</text>
  <text x="285" y="605" font-family="Microsoft YaHei, PingFang SC, Arial, sans-serif" font-size="18" font-weight="800" fill="#1A1A1A">5 项</text>
  <text x="241" y="630" font-family="Microsoft YaHei, PingFang SC, Arial, sans-serif" font-size="12" fill="#526B86">优惠券 3 ｜ 会员 2</text>

  <!-- data rights -->
  <rect x="35" y="662" width="360" height="126" rx="16" fill="url(#data)"/>
  <text x="59" y="694" font-family="Microsoft YaHei, PingFang SC, Arial, sans-serif" font-size="16" font-weight="800" fill="#FFFFFF">数据权益中心</text>
  <text x="59" y="721" font-family="Microsoft YaHei, PingFang SC, Arial, sans-serif" font-size="12" fill="#D6F4F0">把健康打卡、服务评价、活动参与沉淀为可查看的贡献和收益</text>
  <text x="59" y="758" font-family="Microsoft YaHei, PingFang SC, Arial, sans-serif" font-size="13" fill="#D6F4F0">贡献值</text>
  <text x="111" y="759" font-family="Microsoft YaHei, PingFang SC, Arial, sans-serif" font-size="22" font-weight="800" fill="#FFFFFF">1,260</text>
  <text x="226" y="758" font-family="Microsoft YaHei, PingFang SC, Arial, sans-serif" font-size="13" fill="#D6F4F0">累计收益</text>
  <text x="292" y="759" font-family="Microsoft YaHei, PingFang SC, Arial, sans-serif" font-size="22" font-weight="800" fill="#FFFFFF">¥36.80</text>

  <!-- recent changes -->
  <rect x="35" y="804" width="360" height="88" rx="14" fill="#FFFFFF"/>
  <text x="55" y="833" font-family="Microsoft YaHei, PingFang SC, Arial, sans-serif" font-size="16" font-weight="800" fill="#1A1A1A">最近变动</text>
  <circle cx="61" cy="858" r="4" fill="#52C41A"/>
  <text x="74" y="862" font-family="Microsoft YaHei, PingFang SC, Arial, sans-serif" font-size="12" fill="#4D453E">+10 积分，看视频奖励</text>
  <circle cx="238" cy="858" r="4" fill="#0F766E"/>
  <text x="251" y="862" font-family="Microsoft YaHei, PingFang SC, Arial, sans-serif" font-size="12" fill="#4D453E">+¥2.30 数据收益到账</text>
  <text x="55" y="882" font-family="Microsoft YaHei, PingFang SC, Arial, sans-serif" font-size="12" fill="#9A8D80">助餐 8 折券还有 6 天到期</text>
</svg>
